<svg width="749" height="288" viewBox="0 0 749 288" fill="none" xmlns="http://www.w3.org/2000/svg">
<g clip-path="url(#clip0_6603_18779)">
<path d="M246.641 171.125V168.813C246.641 168.719 246.641 168.589 246.651 168.401C246.599 168.552 246.573 168.682 246.479 168.813L245.292 170.646H245.172L243.958 168.776C243.88 168.682 243.802 168.531 243.719 168.401C243.719 168.552 243.802 168.682 243.802 168.813V171.125H243.172V167.375H243.802L245.266 169.641L246.745 167.375H247.318V171.125H246.641ZM242.281 168.016H240.828V171.125H240.078V168.016H238.641V167.375H242.281V168.016ZM238.094 196.615C238.094 198.906 237.292 200.859 235.708 202.448C234.078 204.063 232.135 204.88 229.828 204.88H220.135C217.828 204.88 215.906 204.099 214.349 202.552C212.802 201.01 212.016 199.104 212.016 196.755V192.906H217.974L218.88 196.474C219.292 197.938 220.307 198.698 221.948 198.698H228.521C229.349 198.698 230.042 198.406 230.547 197.787C231.026 197.198 231.266 196.417 231.266 195.516V191.281C231.266 189.203 230.375 188.141 228.521 188.141H220.255C217.974 188.141 216.016 187.354 214.438 185.729C212.839 184.115 212.016 182.177 212.016 179.885V174.297C212.016 172.052 212.839 170.12 214.438 168.521C216.016 166.906 217.974 166.099 220.255 166.099H229.828C232.135 166.099 234.042 166.88 235.625 168.417C237.188 169.958 237.974 171.875 237.974 174.188V177.672H232L231.12 174.516C230.641 173.01 229.625 172.271 228.094 172.271H221.589C220.76 172.271 220.052 172.578 219.573 173.182C219.078 173.792 218.812 174.552 218.812 175.49V178.75C218.812 180.787 219.76 181.802 221.589 181.802H229.828C232.104 181.802 234.026 182.609 235.625 184.245C237.292 185.88 238.094 187.813 238.094 190.057V196.615ZM207.026 172.365H197.068V204.88H190.214V172.365H180.349V166.099H207.026V172.365ZM170.318 204.88L164.016 189.703H157.505V204.88H150.641V166.099H167.786C170.094 166.099 172.026 166.906 173.615 168.521C175.229 170.099 176.042 172.052 176.042 174.271V181.031C176.042 182.781 175.547 184.396 174.589 185.802C173.573 187.203 172.292 188.198 170.812 188.849L177.599 204.88H170.318ZM144 156.875L50.5469 156.896L73.2812 120.979H56.599L67.9479 103.037H137.438L126.094 120.979H94.9219L83.4115 138.953H133.589L179.453 66.5313L236.547 156.875H215L203.651 138.938H169.906L181.255 120.958H192.318L179.453 100.568L144 156.875ZM142.281 196.557C142.281 198.906 141.505 200.859 139.854 202.448C138.24 204.063 136.333 204.88 134.016 204.88H124.76C122.453 204.88 120.505 204.063 118.896 202.448C117.292 200.859 116.453 198.906 116.453 196.557V174.271C116.453 172.052 117.292 170.099 118.896 168.521C120.505 166.906 122.453 166.099 124.76 166.099H134.016C136.333 166.099 138.24 166.906 139.854 168.495C141.505 170.052 142.281 172.016 142.281 174.271V196.557ZM109.438 182.422C109.438 184.688 108.641 186.63 107.042 188.234C105.401 189.833 103.427 190.651 101.161 190.651H90.4792V204.88H83.6406V166.099H101.161C103.427 166.099 105.401 166.906 107.042 168.521C108.641 170.099 109.438 172.037 109.438 174.271V182.422ZM75.6146 196.615C75.6146 198.906 74.8125 200.859 73.2396 202.448C71.625 204.063 69.651 204.88 67.4115 204.88H57.6667C55.375 204.88 53.4271 204.099 51.8802 202.552C50.3333 201.01 49.5729 199.104 49.5729 196.755V192.906H55.5469L56.4271 196.474C56.8125 197.938 57.8385 198.698 59.4948 198.698H66.0781C66.8958 198.698 67.5625 198.406 68.0938 197.787C68.5885 197.198 68.8281 196.417 68.8281 195.516V191.281C68.8281 189.203 67.9062 188.141 66.0781 188.141H57.8021C55.5469 188.141 53.5729 187.354 51.9583 185.729C50.3594 184.115 49.5729 182.177 49.5729 179.885V174.297C49.5729 172.052 50.3594 170.12 51.9583 168.521C53.5729 166.906 55.5469 166.099 57.8021 166.099H67.4115C69.651 166.099 71.5885 166.88 73.1719 168.417C74.7448 169.958 75.5052 171.875 75.5052 174.188V177.672H69.5469L68.6667 174.516C68.1979 173.01 67.1615 172.271 65.6406 172.271H59.1458C58.2917 172.271 57.625 172.578 57.1198 173.182C56.599 173.792 56.3594 174.552 56.3594 175.49V178.75C56.3594 180.787 57.2812 181.802 59.1458 181.802H67.4115C69.6406 181.802 71.5729 182.609 73.1875 184.245C74.8125 185.88 75.6146 187.813 75.6146 190.057V196.615ZM90.5729 67.1511H164.359L153.052 85.0522L79.2812 85.099L90.5729 67.1511ZM144.214 17.2761C74.0677 17.2761 17.1875 74.1459 17.1875 144.297C17.1875 214.458 74.0677 271.323 144.214 271.323C214.375 271.323 271.24 214.458 271.24 144.297C271.24 74.1459 214.375 17.2761 144.214 17.2761Z" fill="white"/>
<path d="M220.135 204.88C217.828 204.88 215.906 204.099 214.349 202.552C212.802 201.01 212.015 199.104 212.015 196.755V192.911H217.974L218.88 196.474C219.292 197.938 220.307 198.698 221.948 198.698H228.521C229.349 198.698 230.042 198.406 230.547 197.786C231.026 197.198 231.265 196.417 231.265 195.516V191.286C231.265 189.203 230.375 188.141 228.521 188.141H220.255C217.974 188.141 216.015 187.354 214.437 185.729C212.838 184.12 212.015 182.177 212.015 179.885V174.297C212.015 172.052 212.838 170.12 214.437 168.521C216.015 166.906 217.974 166.099 220.255 166.099H229.828C232.135 166.099 234.042 166.88 235.625 168.417C237.187 169.958 237.974 171.875 237.974 174.193V177.677H232L231.12 174.516C230.64 173.01 229.625 172.271 228.094 172.271H221.588C220.76 172.271 220.052 172.578 219.573 173.188C219.078 173.792 218.812 174.552 218.812 175.49V178.75C218.812 180.786 219.76 181.802 221.588 181.802H229.828C232.104 181.802 234.026 182.609 235.625 184.245C237.292 185.88 238.094 187.812 238.094 190.057V196.615C238.094 198.906 237.292 200.859 235.708 202.448C234.078 204.062 232.135 204.88 229.828 204.88H220.135ZM150.64 166.099H167.786C170.094 166.099 172.026 166.906 173.614 168.521C175.213 170.099 176.042 172.052 176.042 174.271V181.031C176.042 182.786 175.547 184.396 174.588 185.802C173.573 187.203 172.292 188.198 170.812 188.854L177.599 204.88H170.318L164.015 189.703H157.505V204.88H150.64V166.099ZM180.349 172.365V166.099H207.026V172.365H197.068V204.88H190.213V172.365H180.349ZM238.64 168.016V167.375H242.281V168.016H240.828V171.13H240.078V168.016H238.64ZM246.479 168.812L245.292 170.646H245.172L243.958 168.776C243.88 168.682 243.802 168.531 243.719 168.401C243.719 168.552 243.802 168.682 243.802 168.812V171.13H243.172V167.375H243.802L245.265 169.641L246.745 167.375H247.318V171.13H246.64V168.812C246.64 168.719 246.64 168.589 246.651 168.401C246.599 168.552 246.573 168.682 246.479 168.812ZM90.5728 67.151H164.359L153.052 85.0521L79.2811 85.099L90.5728 67.151ZM50.5467 156.901L73.2811 120.979H56.5988L67.9478 103.036H137.437L126.094 120.979H94.9217L83.4113 138.953H133.588L179.453 66.5312L236.547 156.875H215L203.651 138.938H169.906L181.255 120.958H192.307L179.453 100.568L144 156.875L50.5467 156.901ZM116.453 196.557V174.271C116.453 172.052 117.292 170.099 118.896 168.521C120.505 166.906 122.453 166.099 124.76 166.099H134.015C136.333 166.099 138.239 166.906 139.854 168.495C141.505 170.052 142.281 172.016 142.281 174.271V196.557C142.281 198.906 141.505 200.859 139.854 202.448C138.239 204.062 136.333 204.88 134.015 204.88H124.76C122.453 204.88 120.505 204.062 118.896 202.448C117.292 200.859 116.453 198.906 116.453 196.557ZM83.6405 204.88V166.099H101.161C103.427 166.099 105.401 166.906 107.042 168.521C108.64 170.099 109.437 172.036 109.437 174.271V182.422C109.437 184.688 108.64 186.63 107.042 188.234C105.401 189.833 103.427 190.651 101.161 190.651H90.479V204.88H83.6405ZM49.5728 196.755V192.911H55.5467L56.4269 196.474C56.8123 197.938 57.8384 198.698 59.4946 198.698H66.078C66.8957 198.698 67.5623 198.406 68.0936 197.786C68.5884 197.198 68.828 196.417 68.828 195.516V191.286C68.828 189.203 67.9061 188.141 66.078 188.141H57.8019C55.5467 188.141 53.5728 187.354 51.9582 185.729C50.3592 184.12 49.5728 182.177 49.5728 179.885V174.297C49.5728 172.052 50.3592 170.12 51.9582 168.521C53.5728 166.906 55.5467 166.099 57.8019 166.099H67.4113C69.6509 166.099 71.5884 166.88 73.1717 168.417C74.7446 169.958 75.5051 171.875 75.5051 174.193V177.677H69.5467L68.6665 174.516C68.1978 173.01 67.1613 172.271 65.6405 172.271H59.1457C58.2915 172.271 57.6248 172.578 57.1196 173.188C56.5988 173.792 56.3592 174.552 56.3592 175.49V178.75C56.3592 180.786 57.2811 181.802 59.1457 181.802H67.4113C69.6405 181.802 71.5728 182.609 73.1873 184.245C74.8123 185.88 75.6144 187.812 75.6144 190.057V196.615C75.6144 198.906 74.8123 200.859 73.2394 202.448C71.6248 204.062 69.6509 204.88 67.4113 204.88H57.6665C55.3748 204.88 53.4269 204.099 51.88 202.552C50.3332 201.01 49.5728 199.104 49.5728 196.755ZM144.213 0.71875C64.9321 0.71875 0.682129 64.9896 0.682129 144.271C0.682129 223.552 64.9321 287.823 144.213 287.823C223.495 287.823 287.76 223.552 287.76 144.271C287.76 64.9896 223.495 0.71875 144.213 0.71875Z" fill="white"/>
<path d="M102.573 181.203C102.573 182.141 102.318 182.875 101.812 183.495C101.307 184.083 100.625 184.396 99.8281 184.396H90.4792V172.365H99.8281C100.625 172.365 101.307 172.656 101.812 173.255C102.318 173.865 102.573 174.599 102.573 175.547V181.203ZM107.042 168.521C105.401 166.906 103.427 166.099 101.161 166.099H83.6406V204.88H90.4792V190.651H101.161C103.427 190.651 105.401 189.833 107.042 188.234C108.641 186.63 109.438 184.687 109.438 182.422V174.271C109.438 172.036 108.641 170.099 107.042 168.521Z" fill="black"/>
<path d="M75.6144 190.057V196.615C75.6144 198.906 74.8123 200.859 73.2394 202.448C71.6248 204.062 69.6509 204.88 67.4113 204.88H57.6665C55.3748 204.88 53.4269 204.099 51.88 202.552C50.3332 201.01 49.5728 199.104 49.5728 196.755V192.911H55.5467L56.4113 196.474C56.8123 197.937 57.8384 198.698 59.4946 198.698H66.078C66.8957 198.698 67.5623 198.406 68.0936 197.786C68.5884 197.198 68.828 196.417 68.828 195.516V191.286C68.828 189.203 67.9061 188.141 66.078 188.141H57.8019C55.5467 188.141 53.5884 187.354 51.9582 185.729C50.3592 184.115 49.5728 182.177 49.5728 179.885V174.297C49.5728 172.052 50.3592 170.12 51.9582 168.521C53.5884 166.906 55.5467 166.099 57.8019 166.099H67.4113C69.6509 166.099 71.5884 166.88 73.1717 168.417C74.7446 169.958 75.505 171.875 75.505 174.193V177.677H69.5467L68.6665 174.516C68.1978 173.01 67.1457 172.271 65.6405 172.271H59.1457C58.2915 172.271 57.6248 172.578 57.1196 173.187C56.5988 173.792 56.3592 174.552 56.3592 175.49V178.75C56.3592 180.786 57.2811 181.802 59.1457 181.802H67.4113C69.6405 181.802 71.5728 182.609 73.1873 184.245C74.8123 185.88 75.6144 187.812 75.6144 190.057Z" fill="black"/>
<path d="M247.318 167.375V171.125H246.641V168.812C246.641 168.719 246.641 168.589 246.651 168.401C246.599 168.552 246.573 168.682 246.479 168.812L245.292 170.646H245.172L243.958 168.776C243.88 168.682 243.802 168.531 243.719 168.401C243.719 168.552 243.802 168.682 243.802 168.812V171.125H243.172V167.375H243.802L245.266 169.641L246.745 167.375" fill="black"/>
<path d="M242.281 167.375V168.016H240.828V171.125H240.078V168.016H238.641V167.375" fill="black"/>
<path d="M238.094 190.057V196.615C238.094 198.906 237.292 200.859 235.708 202.448C234.078 204.062 232.135 204.88 229.828 204.88H220.135C217.828 204.88 215.906 204.099 214.349 202.552C212.802 201.01 212.016 199.104 212.016 196.755V192.911H217.974L218.88 196.474C219.292 197.937 220.307 198.698 221.948 198.698H228.521C229.349 198.698 230.042 198.406 230.547 197.786C231.026 197.198 231.266 196.417 231.266 195.516V191.286C231.266 189.203 230.375 188.141 228.521 188.141H220.255C217.974 188.141 216.016 187.354 214.438 185.729C212.839 184.115 212.016 182.177 212.016 179.885V174.297C212.016 172.052 212.839 170.12 214.438 168.521C216.016 166.906 217.974 166.099 220.255 166.099H229.828C232.135 166.099 234.042 166.88 235.625 168.417C237.188 169.958 237.974 171.875 237.974 174.193V177.677H232.016L231.12 174.516C230.641 173.01 229.625 172.271 228.094 172.271H221.589C220.76 172.271 220.052 172.578 219.573 173.187C219.078 173.792 218.812 174.552 218.812 175.49V178.75C218.812 180.786 219.76 181.802 221.589 181.802H229.828C232.104 181.802 234.026 182.609 235.625 184.245C237.292 185.88 238.094 187.812 238.094 190.057Z" fill="black"/>
<path d="M207.026 166.099V172.365H197.068V204.88H190.214V172.365H180.349V166.099" fill="black"/>
<path d="M169.161 180.328C169.161 181.24 168.922 182 168.427 182.594C167.922 183.172 167.266 183.448 166.479 183.448H157.505V172.365H166.479C167.266 172.365 167.922 172.656 168.427 173.255C168.922 173.865 169.161 174.625 169.161 175.547V180.328ZM170.812 188.849C172.292 188.198 173.573 187.203 174.589 185.802C175.547 184.396 176.042 182.781 176.042 181.031V174.271C176.042 172.052 175.214 170.099 173.615 168.521C172.026 166.906 170.094 166.099 167.786 166.099H150.641V204.88H157.505V189.703H164.016L170.318 204.88H177.599" fill="black"/>
<path d="M169.162 175.547V180.328C169.162 181.24 168.922 182 168.427 182.599C167.922 183.172 167.266 183.453 166.479 183.453H157.505V172.365H166.479C167.266 172.365 167.922 172.656 168.427 173.255C168.922 173.865 169.162 174.625 169.162 175.547Z" fill="white"/>
<path d="M135.453 195.422C135.453 196.323 135.198 197.073 134.667 197.677C134.161 198.312 133.495 198.625 132.693 198.625H126.135C125.266 198.625 124.615 198.312 124.094 197.677C123.599 197.073 123.359 196.323 123.359 195.422V175.547C123.359 174.625 123.599 173.865 124.094 173.255C124.615 172.656 125.266 172.365 126.135 172.365H132.693C133.495 172.365 134.161 172.656 134.667 173.255C135.198 173.865 135.453 174.625 135.453 175.547V195.422ZM139.854 168.495C138.24 166.906 136.333 166.099 134.016 166.099H124.76C122.453 166.099 120.505 166.906 118.896 168.521C117.292 170.099 116.453 172.052 116.453 174.271V196.557C116.453 198.906 117.292 200.859 118.896 202.448C120.505 204.062 122.453 204.88 124.76 204.88H134.016C136.333 204.88 138.24 204.062 139.854 202.448C141.505 200.859 142.281 198.906 142.281 196.557V174.271C142.281 172.016 141.505 170.052 139.854 168.495Z" fill="black"/>
<path d="M135.453 175.547V195.422C135.453 196.323 135.198 197.073 134.667 197.677C134.161 198.312 133.495 198.625 132.693 198.625H126.135C125.266 198.625 124.615 198.312 124.094 197.677C123.599 197.073 123.359 196.323 123.359 195.422V175.547C123.359 174.625 123.599 173.865 124.094 173.255C124.615 172.656 125.266 172.365 126.135 172.365H132.693C133.495 172.365 134.161 172.656 134.667 173.255C135.198 173.865 135.453 174.625 135.453 175.547Z" fill="white"/>
<path d="M102.573 175.547V181.203C102.573 182.141 102.318 182.875 101.812 183.495C101.307 184.083 100.625 184.396 99.828 184.396H90.479V172.365H99.828C100.625 172.365 101.307 172.656 101.812 173.255C102.318 173.865 102.573 174.599 102.573 175.547Z" fill="white"/>
<path d="M236.547 156.875H215L203.651 138.938H169.906L181.255 120.958H192.318L179.453 100.568L144 156.875L50.5469 156.901L73.2812 120.979H56.599L67.9479 103.036H137.438L126.094 120.979H94.9219L83.4115 138.953H133.589L179.453 66.5312" fill="black"/>
<path d="M164.359 67.1511L153.052 85.0522L79.2812 85.099L90.5729 67.1511H164.359Z" fill="black"/>
<path d="M503.708 210.474H626.922L676.188 125.323H619.375L598.531 161.312L556.828 161.349L621.229 49.8958H662.922L640.188 89.2187L697.026 89.276L748.281 0.739502L622.932 0.723877C604.349 0.723877 587.172 10.6353 577.865 26.7291L487.641 182.62C480.479 194.99 489.412 210.474 503.708 210.474Z" fill="white"/>
<path d="M426.042 85.9427L446.896 49.8958H545.427L573.974 0.71875H449.135C430.214 0.71875 412.734 10.8073 403.266 27.1823L297.172 210.469H354.026L397.693 135.104H496.229L524.589 85.9427" fill="white"/>
<path d="M610.651 238.641L619.307 223.672H579.948C574.505 223.672 569.479 226.578 566.76 231.292L539.104 279.177C536.896 283.021 539.651 287.823 544.094 287.823H582.266L590.906 272.859H560.042L564.974 264.302H595.838L604.479 249.333H573.625L579.812 238.635" fill="white"/>
<path d="M505.068 272.849L533.453 223.661H516.162L484.104 279.172C481.896 283.01 484.667 287.812 489.104 287.812H527.266L535.906 272.849" fill="white"/>
<path d="M380.521 274.469H363.187L364.599 272.026L384.349 237.818L384.812 237.005H402.146L400.734 239.448L380.984 273.651L380.521 274.469ZM415.281 223.667H385.896C380.469 223.667 375.437 226.568 372.719 231.281L345.068 279.162C342.854 283 345.625 287.802 350.052 287.802H379.427C384.864 287.802 389.896 284.901 392.614 280.193L420.265 232.307C422.479 228.469 419.708 223.667 415.281 223.667Z" fill="white"/>
<path d="M489.922 223.661L452.922 287.786L470.188 287.781L507.229 223.667L489.922 223.661Z" fill="white"/>
<path d="M358.469 223.667H298.229C292.786 223.667 287.76 226.568 285.042 231.281L252.401 287.818L269.708 287.807L298.078 238.635H311.651L283.281 287.818H300.547L328.948 238.635L342.547 238.63L314.146 287.818H331.411L363.453 232.307C365.682 228.469 362.906 223.667 358.469 223.667Z" fill="white"/>
<path d="M434.922 250.193L441.865 238.151H456.974L450.026 250.193H434.922ZM436.787 273.109L421.682 273.115L427.427 263.156H442.531L436.787 273.109ZM458.813 258.073C458.599 257.719 458.36 257.406 458.078 257.135C460.625 256.484 464.188 254.875 466.479 250.917L476.651 233.286C477.813 231.276 477.813 228.875 476.651 226.859C475.495 224.849 473.412 223.651 471.094 223.651L433.427 223.641L396.412 287.766L436.146 287.776H436.162C441.735 287.776 446.922 284.781 449.708 279.953L458.052 265.495C459.651 262.714 459.932 260.01 458.813 258.073Z" fill="white"/>
</g>
<defs>
<clipPath id="clip0_6603_18779">
<rect width="749" height="288" fill="white"/>
</clipPath>
</defs>
</svg>
